name symmetric_stride_kinematics_IKTD_Minus_4.mot
datacolumns 38
datarows 5
range 1.04395602 1.04813184
endheader
                time	/jointset/ground_pelvis/pelvis_tilt/value	/jointset/ground_pelvis/pelvis_list/value	/jointset/ground_pelvis/pelvis_rotation/value	/jointset/ground_pelvis/pelvis_tx/value	/jointset/ground_pelvis/pelvis_ty/value	/jointset/ground_pelvis/pelvis_tz/value	/jointset/hip_r/hip_flexion_r/value	/jointset/hip_r/hip_adduction_r/value	/jointset/hip_r/hip_rotation_r/value	/jointset/knee_r/knee_angle_r/value	/jointset/ankle_r/ankle_angle_r/value	/jointset/subtalar_r/subtalar_angle_r/value	/jointset/mtp_r/mtp_angle_r/value	/jointset/hip_l/hip_flexion_l/value	/jointset/hip_l/hip_adduction_l/value	/jointset/hip_l/hip_rotation_l/value	/jointset/knee_l/knee_angle_l/value	/jointset/ankle_l/ankle_angle_l/value	/jointset/subtalar_l/subtalar_angle_l/value	/jointset/mtp_l/mtp_angle_l/value	/jointset/back/lumbar_extension/value	/jointset/back/lumbar_bending/value	/jointset/back/lumbar_rotation/value	/jointset/acromial_r/arm_flex_r/value	/jointset/acromial_r/arm_add_r/value	/jointset/acromial_r/arm_rot_r/value	/jointset/elbow_r/elbow_flex_r/value	/jointset/radioulnar_r/pro_sup_r/value	/jointset/radius_hand_r/wrist_flex_r/value	/jointset/radius_hand_r/wrist_dev_r/value	/jointset/acromial_l/arm_flex_l/value	/jointset/acromial_l/arm_add_l/value	/jointset/acromial_l/arm_rot_l/value	/jointset/elbow_l/elbow_flex_l/value	/jointset/radioulnar_l/pro_sup_l/value	/jointset/radius_hand_l/wrist_flex_l/value	/jointset/radius_hand_l/wrist_dev_l/value	
          1.04395602	         -8.05841783	          3.29411441	          6.52764961	         12.35000012	          0.99424626	          0.30749054	         31.96239467	        -10.46249974	          1.78963911	       -118.53295328	         -7.91834076	        -19.71408756	         -3.54915504	         34.96924881	          2.75871202	          0.29554877	        -17.34176849	        -21.71172925	        -16.29175608	         -1.05347180	        -17.05922634	         -7.65400431	          3.07576292	         -0.45028241	        -19.09224312	        -12.10993387	         73.51448869	         84.95135511	        -18.37224146	          5.53259732	         -6.09382115	        -25.35567983	        -14.23322569	        104.35129367	         79.56919274	        -23.37888552	          5.15548865	
          1.04460348	         -8.13346195	          3.20424718	          6.77313990	         12.35777071	          0.99374235	          0.30762198	         32.43345170	        -10.47934466	          1.65972199	       -118.85288078	         -7.72992948	        -19.76779320	         -3.35821617	         34.64309020	          2.76111760	          0.29385470	        -17.19321175	        -21.17542957	        -15.76519230	         -0.81646824	        -16.92796558	         -7.55377532	          2.86836479	         -0.95137512	        -18.85549762	        -11.84815423	         73.38616107	         84.68034531	        -18.27093755	          5.58091020	         -5.13028991	        -25.26251676	        -14.15672311	        104.62677812	         79.86198879	        -23.29181761	          5.17097615	
          1.04664921	         -8.36581254	          2.90821450	          7.55696469	         12.38235424	          0.99206114	          0.30804099	         33.92790129	        -10.54637792	          1.24585556	       -119.84835567	         -7.15880728	        -19.92983566	         -2.93386678	         33.60401506	          2.75342439	          0.37505792	        -16.75173704	        -19.40476946	        -14.33703081	         -0.10411933	        -16.50473160	         -7.23064203	          2.19248573	         -2.53988069	        -18.10456826	        -10.98231259	         73.05923318	         83.79741151	        -17.96717252	          5.78835196	         -2.08719721	        -24.94272530	        -13.91412288	        105.46666573	         80.92320322	        -22.99357667	          5.20439404	
          1.04813184	         -8.52764408	          2.68519127	          8.13198021	         12.40020299	          0.99076335	          0.30834648	         35.01405369	        -10.61137552	          0.94464591	       -120.55462733	         -6.76735264	        -20.04217841	         -2.79455906	         32.84155538	          2.73315197	          0.50836284	        -16.47022456	        -18.05847867	        -13.52824988	          0.48090587	        -16.19273833	         -6.99380062	          1.68210112	         -3.69708519	        -17.55670488	        -10.32370921	         72.88827601	         83.19547174	        -17.75250587	          5.96031245	          0.11236466	        -24.68935579	        -13.74325745	        106.05627488	         81.76674584	        -22.76455515	          5.22768926	
          1.04813184	         -8.52764408	          2.68519127	          8.13198021	         12.40020299	          0.99076335	          0.30834648	         35.01405369	        -10.61137552	          0.94464591	       -120.55462733	         -6.76735264	        -20.04217841	         -2.79455906	         32.84155538	          2.73315197	          0.50836284	        -16.47022456	        -18.05847867	        -13.52824988	          0.48090587	        -16.19273833	         -6.99380062	          1.68210112	         -3.69708519	        -17.55670488	        -10.32370921	         72.88827601	         83.19547174	        -17.75250587	          5.96031245	          0.11236466	        -24.68935579	        -13.74325745	        106.05627488	         81.76674584	        -22.76455515	          5.22768926	
